<svg xmlns="http://www.w3.org/2000/svg" xmlns:xlink="http://www.w3.org/1999/xlink" version="1.1" id="Layer_1" x="0px" y="0px" width="100px" height="100px" viewBox="0 0 100 100" enable-background="new 0 0 100 100" xml:space="preserve">
<path d="M75.414,57.59c0,0,3.536,8.279,4.571,10.262c1.034,1.984,0,11.902,0,11.902l-4.916,7.934h5.002  c1.726-2.156-0.431-2.76-0.431-2.76l1.811-2.76c0,0,1.553,0.775,1.725-2.328c0.173-3.105,1.035-10.953,1.035-10.953  S80.234,62.27,75.414,57.59z M88.092,65.869c0,0,0.346-2.07-0.863-3.537c-1.207-1.465-4.225-5.605-3.018-9.314  c1.207-3.708,3.449-8.537,2.501-12.504s-2.538-7.408-3.019-7.675c-6.95-3.877-15.265-4.14-19.663-1.639  c-4.398,2.5-12.246,2.328-12.246,2.328c-8.71-1.379-13.453-8.279-17.938-11.642s-12.419-5.52-12.419-5.52  c-0.172-2.242-1.725-3.105-1.725-3.105v2.156c-0.518-2.76-2.674-4.312-2.674-4.312c0.69,1.121,0.604,5.26,0.604,5.26  c-3.104,0.863-4.484,2.415-4.484,2.415l0.863,1.726l-0.345,1.379c-5.088,4.312-7.33,7.934-6.986,8.365  c0.346,0.432,0.173,1.553,0.863,2.416c0.69,0.862,2.07,0,2.07,0c0.43,0.862,1.121,0.604,2.328-0.173  c1.207-0.776,4.484-1.553,4.484-1.553c4.226,0.173,4.83-1.121,4.83-1.121c5.088,4.83,5.088,10.091,5.002,17.076  c-0.086,6.986,2.5,7.332,2.5,7.332c1.639,8.365,1.553,25.527,1.553,25.527s-0.604,2.414-1.811,3.707  c-1.207,1.293-3.018,4.227-3.018,4.227h5.174c1.035-1.467-0.086-2.502-0.086-2.502l0.776-1.553c2.07-1.033,1.984-2.932,1.984-2.932  l0.258-9.055c1.035-0.775,1.035-11.211,1.035-11.211c0.604-0.775,1.38-2.846,1.38-2.846c24.146,2.76,35.271-7.245,35.271-7.245  c0.173,1.465,9.918,11.557,13.454,17.506c3.535,5.951,2.156,18.197,2.156,18.197L84.9,88.895h4.744  c1.293-2.328-0.26-3.105-0.26-3.105l0.69-4.053c1.466,0,1.121-1.639,1.034-2.5C91.023,78.373,87.488,68.197,88.092,65.869z   M92.748,65.352c-1.725-6.297,1.208-11.299-1.293-21.302c-1.752-7.008-4.857-9.699-6.562-10.682c0,0,3.802,7.319,2.939,10.855  c-0.862,3.536-1.812,7.502-1.812,7.502v6.727c0,0,0.518,1.209,1.639,2.416s1.898,2.76,1.553,4.312  c-0.346,1.551,0.086,3.967,0.518,5.346c0.432,1.381,1.293,5.951,2.242,6.037C91.973,76.562,94.473,71.646,92.748,65.352z   M36.597,58.477c0,0,1.389,12.395,2.405,16.102c1.016,3.709-0.499,8.193-0.499,8.193l-2.932,3.795h3.818  c1.749-0.432,1.701-3.277,1.701-3.277c1.725-0.518,1.293-3.535,1.293-3.535s-0.776-6.297-0.776-7.115  c0-0.82,1.14-13.588,1.14-13.588C38.796,58.951,36.597,58.477,36.597,58.477z"/>
</svg>